<svg width="35" height="35" viewBox="0 0 35 35" fill="none" xmlns="http://www.w3.org/2000/svg">
<rect width="35" height="35" fill="white" fill-opacity="0.01" style="mix-blend-mode:multiply"/>
<path d="M32.8125 17.5L25.1562 9.84375L23.6096 11.3904L28.6255 16.4062H9.84375V18.5938H28.6255L23.6096 23.6096L25.1562 25.1562L32.8125 17.5Z" fill="#A56EFF"/>
<path d="M15.3125 30.625C8.07548 30.625 2.1875 24.7371 2.1875 17.5C2.1875 10.2629 8.07548 4.375 15.3125 4.375C17.8664 4.375 20.3422 5.10934 22.4723 6.49841L21.2776 8.33077C19.5034 7.17402 17.4409 6.5625 15.3124 6.5625C9.28156 6.5625 4.37489 11.4691 4.37489 17.5C4.37489 23.5309 9.28156 28.4375 15.3124 28.4375C17.4408 28.4375 19.5034 27.826 21.2776 26.6692L22.4723 28.5016C20.3422 29.8907 17.8663 30.625 15.3125 30.625Z" fill="#A56EFF"/>
</svg>
