<svg width="35" height="35" viewBox="0 0 35 35" fill="none" xmlns="http://www.w3.org/2000/svg">
<rect width="35" height="35" fill="white" fill-opacity="0.01" style="mix-blend-mode:multiply"/>
<path d="M17.5 32.8125C14.4715 32.8125 11.511 31.9144 8.99284 30.2319C6.47471 28.5493 4.51207 26.1578 3.3531 23.3598C2.19413 20.5619 1.8909 17.483 2.48173 14.5127C3.07257 11.5424 4.53094 8.81393 6.67243 6.67243C8.81393 4.53094 11.5424 3.07257 14.5127 2.48173C17.483 1.8909 20.5619 2.19413 23.3598 3.3531C26.1578 4.51207 28.5493 6.47471 30.2319 8.99284C31.9144 11.511 32.8125 14.4715 32.8125 17.5C32.8125 21.5611 31.1992 25.4559 28.3276 28.3276C25.4559 31.1992 21.5611 32.8125 17.5 32.8125ZM17.5 4.37501C14.9041 4.37501 12.3665 5.14477 10.2081 6.58697C8.04975 8.02916 6.36749 10.079 5.37409 12.4773C4.38069 14.8756 4.12077 17.5146 4.6272 20.0606C5.13363 22.6066 6.38367 24.9452 8.21923 26.7808C10.0548 28.6163 12.3934 29.8664 14.9394 30.3728C17.4854 30.8792 20.1244 30.6193 22.5227 29.6259C24.921 28.6325 26.9708 26.9503 28.413 24.7919C29.8552 22.6335 30.625 20.0959 30.625 17.5C30.625 14.019 29.2422 10.6806 26.7808 8.21923C24.3194 5.75782 20.981 4.37501 17.5 4.37501Z" fill="#009D9A"/>
<path d="M22.5203 24.0625L16.4063 17.9484V7.65626H18.5938V17.0406L24.0625 22.5203L22.5203 24.0625Z" fill="#009D9A"/>
</svg>
