<svg width="32" height="32" viewBox="0 0 32 32" fill="none" xmlns="http://www.w3.org/2000/svg">
<path d="M26.6666 20.4134L29.1999 17.88C30.2399 16.84 30.2399 15.1467 29.1999 14.1067L26.6666 11.5867V8.00002C26.6666 6.53335 25.4666 5.33335 23.9999 5.33335H20.4133L17.8799 2.80002C16.8399 1.76002 15.1466 1.76002 14.1066 2.80002L11.5866 5.33335H7.99993C6.53326 5.33335 5.33326 6.53335 5.33326 8.00002V11.5867L2.79993 14.12C1.75993 15.16 1.75993 16.8534 2.79993 17.8934L5.33326 20.4267V24C5.33326 25.4667 6.53326 26.6667 7.99993 26.6667H11.5866L14.1199 29.2C15.1599 30.24 16.8533 30.24 17.8933 29.2L20.4266 26.6667H23.9999C25.4666 26.6667 26.6666 25.4667 26.6666 24V20.4134ZM15.9999 22.5334V9.46669C15.9999 8.65335 16.7333 7.98669 17.5333 8.14669C21.2133 8.86669 23.9999 12.1067 23.9999 16C23.9999 19.8934 21.2133 23.1334 17.5333 23.8534C16.7333 24.0134 15.9999 23.3467 15.9999 22.5334Z" fill="white"/>
</svg>
