<svg width="24" height="29" viewBox="0 0 24 29" fill="none" xmlns="http://www.w3.org/2000/svg">
<path d="M3.10661 19.2386C2.81309 17.9576 2.66548 16.6475 2.66661 15.3333C2.66661 8.54931 6.53728 2.75198 11.9999 0.423981C17.4626 2.75198 21.3333 8.54931 21.3333 15.3333C21.3333 16.68 21.1813 17.988 20.8933 19.2386L23.5866 21.6333C23.7025 21.7364 23.7789 21.8767 23.8025 22.03C23.8261 22.1834 23.7955 22.3401 23.7159 22.4733L20.4386 27.9346C20.3864 28.0214 20.3152 28.0952 20.2303 28.1503C20.1453 28.2054 20.049 28.2405 19.9485 28.2528C19.848 28.2652 19.746 28.2545 19.6503 28.2215C19.5545 28.1886 19.4676 28.1342 19.3959 28.0626L16.3906 25.0573C16.1406 24.8072 15.8015 24.6667 15.4479 24.6666H8.55195C8.19835 24.6667 7.85927 24.8072 7.60928 25.0573L4.60395 28.0626C4.53234 28.1342 4.44536 28.1886 4.34963 28.2215C4.25389 28.2545 4.1519 28.2652 4.05141 28.2528C3.95091 28.2405 3.85455 28.2054 3.76962 28.1503C3.6847 28.0952 3.61345 28.0214 3.56128 27.9346L0.283947 22.4746C0.204047 22.3413 0.173243 22.1843 0.196859 22.0307C0.220475 21.877 0.297026 21.7365 0.41328 21.6333L3.10661 19.2386ZM11.9999 15.3333C12.7072 15.3333 13.3855 15.0524 13.8856 14.5523C14.3857 14.0522 14.6666 13.3739 14.6666 12.6666C14.6666 11.9594 14.3857 11.2811 13.8856 10.781C13.3855 10.2809 12.7072 9.99998 11.9999 9.99998C11.2927 9.99998 10.6144 10.2809 10.1143 10.781C9.61423 11.2811 9.33328 11.9594 9.33328 12.6666C9.33328 13.3739 9.61423 14.0522 10.1143 14.5523C10.6144 15.0524 11.2927 15.3333 11.9999 15.3333Z" fill="#E72D2D"/>
</svg>
