<svg width="32" height="32" viewBox="0 0 32 32" fill="none" xmlns="http://www.w3.org/2000/svg">
<path d="M27.9201 14.6667C27.6181 11.9628 26.4056 9.44206 24.4818 7.51827C22.558 5.59448 20.0372 4.38203 17.3334 4.08001V2.66668C17.3334 1.9303 16.7365 1.33334 16.0001 1.33334C15.2637 1.33334 14.6667 1.9303 14.6667 2.66668V4.08001C11.9629 4.38203 9.44212 5.59448 7.51833 7.51827C5.59454 9.44206 4.38209 11.9628 4.08007 14.6667H2.66674C1.93036 14.6667 1.3334 15.2636 1.3334 16C1.3334 16.7364 1.93036 17.3333 2.66674 17.3333H4.08007C4.38209 20.0372 5.59454 22.558 7.51833 24.4818C9.44212 26.4055 11.9629 27.618 14.6667 27.92V29.3333C14.6667 30.0697 15.2637 30.6667 16.0001 30.6667C16.7365 30.6667 17.3334 30.0697 17.3334 29.3333V27.92C20.0372 27.618 22.558 26.4055 24.4818 24.4818C26.4056 22.558 27.6181 20.0372 27.9201 17.3333H29.3334C30.0698 17.3333 30.6667 16.7364 30.6667 16C30.6667 15.2636 30.0698 14.6667 29.3334 14.6667H27.9201ZM16.0001 25.3333C10.8401 25.3333 6.66674 21.16 6.66674 16C6.66674 10.84 10.8401 6.66668 16.0001 6.66668C21.1601 6.66668 25.3334 10.84 25.3334 16C25.3334 21.16 21.1601 25.3333 16.0001 25.3333Z" fill="white"/>
</svg>
