<svg width="35" height="35" viewBox="0 0 35 35" fill="none" xmlns="http://www.w3.org/2000/svg">
<rect width="35" height="35" fill="white" fill-opacity="0.01" style="mix-blend-mode:multiply"/>
<path d="M32.8125 24.0625H2.1875V26.25H32.8125V24.0625Z" fill="url(#paint0_linear_713_42683)"/>
<path d="M32.8125 28.4375H2.1875V30.625H32.8125V28.4375Z" fill="url(#paint1_linear_713_42683)"/>
<path d="M26.25 10.9375C25.8174 10.9375 25.3944 11.0658 25.0347 11.3062C24.675 11.5465 24.3946 11.8882 24.229 12.2879C24.0634 12.6876 24.0201 13.1274 24.1045 13.5518C24.1889 13.9761 24.3973 14.3659 24.7032 14.6718C25.0091 14.9777 25.3989 15.1861 25.8232 15.2705C26.2476 15.3549 26.6874 15.3116 27.0871 15.146C27.4868 14.9804 27.8285 14.7 28.0688 14.3403C28.3092 13.9806 28.4375 13.5576 28.4375 13.125C28.4375 12.5448 28.207 11.9884 27.7968 11.5782C27.3866 11.168 26.8302 10.9375 26.25 10.9375Z" fill="url(#paint2_linear_713_42683)"/>
<path d="M17.5 17.5C16.6347 17.5 15.7888 17.2434 15.0694 16.7627C14.3499 16.2819 13.7892 15.5987 13.458 14.7992C13.1269 13.9998 13.0403 13.1201 13.2091 12.2715C13.3779 11.4228 13.7946 10.6433 14.4064 10.0314C15.0183 9.41955 15.7978 9.00287 16.6465 8.83406C17.4951 8.66525 18.3748 8.75189 19.1742 9.08303C19.9737 9.41416 20.6569 9.97492 21.1377 10.6944C21.6184 11.4138 21.875 12.2597 21.875 13.125C21.8737 14.2849 21.4123 15.397 20.5922 16.2172C19.772 17.0373 18.6599 17.4987 17.5 17.5ZM17.5 10.9375C17.0674 10.9375 16.6444 11.0658 16.2847 11.3062C15.925 11.5465 15.6446 11.8882 15.479 12.2879C15.3134 12.6876 15.2701 13.1274 15.3545 13.5518C15.4389 13.9761 15.6473 14.3659 15.9532 14.6718C16.2591 14.9777 16.6489 15.1861 17.0732 15.2705C17.4976 15.3549 17.9374 15.3116 18.3371 15.146C18.7368 14.9804 19.0785 14.7 19.3188 14.3403C19.5592 13.9806 19.6875 13.5576 19.6875 13.125C19.6869 12.545 19.4563 11.989 19.0462 11.5788C18.636 11.1687 18.08 10.9381 17.5 10.9375Z" fill="url(#paint3_linear_713_42683)"/>
<path d="M8.75 10.9375C8.31735 10.9375 7.89442 11.0658 7.53469 11.3062C7.17496 11.5465 6.89458 11.8882 6.72901 12.2879C6.56345 12.6876 6.52013 13.1274 6.60453 13.5518C6.68894 13.9761 6.89728 14.3659 7.2032 14.6718C7.50913 14.9777 7.89891 15.1861 8.32324 15.2705C8.74757 15.3549 9.18741 15.3116 9.58712 15.146C9.98683 14.9804 10.3285 14.7 10.5688 14.3403C10.8092 13.9806 10.9375 13.5576 10.9375 13.125C10.9375 12.5448 10.707 11.9884 10.2968 11.5782C9.88656 11.168 9.33016 10.9375 8.75 10.9375Z" fill="url(#paint4_linear_713_42683)"/>
<path d="M30.625 21.875H4.375C3.79529 21.8735 3.23975 21.6426 2.82983 21.2327C2.41991 20.8228 2.18897 20.2672 2.1875 19.6875V6.5625C2.18897 5.98279 2.41991 5.42725 2.82983 5.01733C3.23975 4.60741 3.79529 4.37647 4.375 4.375H30.625C31.2047 4.37647 31.7603 4.60741 32.1702 5.01733C32.5801 5.42725 32.811 5.98279 32.8125 6.5625V19.6875C32.8117 20.2674 32.581 20.8234 32.1709 21.2334C31.7609 21.6435 31.2049 21.8742 30.625 21.875ZM30.625 6.5625H4.375V19.6875H30.625V6.5625Z" fill="url(#paint5_linear_713_42683)"/>
<defs>
<linearGradient id="paint0_linear_713_42683" x1="17.5" y1="4.375" x2="17.5" y2="30.625" gradientUnits="userSpaceOnUse">
<stop stop-color="#33B1FF"/>
<stop offset="1" stop-color="#1192E8"/>
</linearGradient>
<linearGradient id="paint1_linear_713_42683" x1="17.5" y1="4.375" x2="17.5" y2="30.625" gradientUnits="userSpaceOnUse">
<stop stop-color="#33B1FF"/>
<stop offset="1" stop-color="#1192E8"/>
</linearGradient>
<linearGradient id="paint2_linear_713_42683" x1="17.5" y1="4.375" x2="17.5" y2="30.625" gradientUnits="userSpaceOnUse">
<stop stop-color="#33B1FF"/>
<stop offset="1" stop-color="#1192E8"/>
</linearGradient>
<linearGradient id="paint3_linear_713_42683" x1="17.5" y1="4.375" x2="17.5" y2="30.625" gradientUnits="userSpaceOnUse">
<stop stop-color="#33B1FF"/>
<stop offset="1" stop-color="#1192E8"/>
</linearGradient>
<linearGradient id="paint4_linear_713_42683" x1="17.5" y1="4.375" x2="17.5" y2="30.625" gradientUnits="userSpaceOnUse">
<stop stop-color="#33B1FF"/>
<stop offset="1" stop-color="#1192E8"/>
</linearGradient>
<linearGradient id="paint5_linear_713_42683" x1="17.5" y1="4.375" x2="17.5" y2="30.625" gradientUnits="userSpaceOnUse">
<stop stop-color="#33B1FF"/>
<stop offset="1" stop-color="#1192E8"/>
</linearGradient>
</defs>
</svg>
